<?xml version="1.0" encoding="UTF-8" standalone="no"?>
<svg
   id="Layer_1"
   data-name="Layer 1"
   viewBox="0 0 122.88 84.04"
   version="1.1"
   sodipodi:docname="contact-us-icon.svg"
   inkscape:version="1.3.1 (9b9bdc1480, 2023-11-25, custom)"
   xmlns:inkscape="http://www.inkscape.org/namespaces/inkscape"
   xmlns:sodipodi="http://sodipodi.sourceforge.net/DTD/sodipodi-0.dtd"
   xmlns="http://www.w3.org/2000/svg"
   xmlns:svg="http://www.w3.org/2000/svg">
  <defs
     id="defs1" />
  <sodipodi:namedview
     id="namedview1"
     pagecolor="#ffffff"
     bordercolor="#000000"
     borderopacity="0.25"
     inkscape:showpageshadow="2"
     inkscape:pageopacity="0.0"
     inkscape:pagecheckerboard="0"
     inkscape:deskcolor="#d1d1d1"
     inkscape:zoom="5.3955079"
     inkscape:cx="61.439999"
     inkscape:cy="42.072035"
     inkscape:window-width="1366"
     inkscape:window-height="701"
     inkscape:window-x="0"
     inkscape:window-y="0"
     inkscape:window-maximized="1"
     inkscape:current-layer="Layer_1" />
  <title
     id="title1">call-message</title>
  <path
     d="m 17.46,31 c 0.935189,5.151173 2.524726,10.161745 4.73,14.91 2.602465,5.423982 6.128321,10.35409 10.42,14.57 0.303291,0.317104 0.732384,0.48214 1.17,0.45 0.704762,-0.08735 1.384843,-0.315175 2,-0.67 0.730847,-0.403826 1.432559,-0.858268 2.1,-1.36 3.14,-2.18 7,-4.89 10.29,-1.85 0.08,0.07 0.12,0.14 0.2,0.2 l 10.47,11.53 c 0.03644,0.04085 0.06986,0.0843 0.1,0.13 1.2255,1.664622 1.522964,3.837235 0.79,5.77 -0.817867,2.215726 -2.17145,4.194567 -3.94,5.76 -2.205226,1.977944 -4.989891,3.191413 -7.94,3.46 -2.765157,0.253076 -5.552115,0.11844 -8.28,-0.4 C 35.488787,82.805892 31.620251,81.188016 28.26,78.77 24.588971,76.054862 21.276024,72.886395 18.4,69.34 L 18.16,69.05 C 16.64,67.25 15,65.32 13.47,63.17 7.4187544,54.495314 3.1776702,44.690145 1,34.34 -0.72,25.59 -0.37,16.85 3.33,9.62 c 2,-4 5.06,-7.2 9,-8.69 3.44,-1.32 7.51,-1.34 12.13,0.63 0.521694,0.2174771 0.897982,0.6840748 1,1.24 l 3.73,16.58 c 0.707176,1.646736 0.386553,3.554833 -0.82,4.88 -1.180991,1.201608 -2.662345,2.064867 -4.29,2.5 -0.56,0.24 -1.21,0.45 -1.9,0.67 -2.27,0.74 -4.86,1.61 -4.73,3.65 v 0 z"
     id="path1"
     sodipodi:nodetypes="cccccccccccccccccccccccccccscc"
     style="fill:#00c7e1;fill-opacity:1" />
  <g
     inkscape:groupmode="layer"
     id="layer5"
     inkscape:label="Layer 1">
    <path
       d="M 34.110001,3 H 117.11 c 3.19545,0.0055 5.7845,2.5945541 5.79,5.7899999 V 70.269999 c 10e-4,1.159282 -0.3472,2.291983 -1,3.25 -0.12237,0.309632 -0.30995,0.589298 -0.55,0.82 -0.15986,0.153112 -0.34191,0.281221 -0.54,0.38 -1.03725,0.869289 -2.34665,1.347043 -3.7,1.35 H 68.000002 c 0.355103,-1.455109 0.496585,-2.954147 0.42,-4.45 H 115.64 L 84.800002,39.23 l -10.18,8.679999 v 0 c -0.822852,0.684723 -2.017148,0.684723 -2.84,0 L 61.100001,39.23 v 0 l -9.69,9.709999 c -1.334487,-0.904036 -2.832431,-1.539218 -4.41,-1.87 l 10.64,-10.659999 -19.73,-16.09 c -0.08326,-1.163884 -0.311696,-2.312793 -0.68,-3.42 l -0.79,-3.49 L 73.150002,43.34 115.26,7.4599999 H 35.110001 Z M 88.180002,36.33 118.44,68.059999 V 10.58 L 88.180002,36.36 Z"
       id="path1-2"
       style="fill:#f4265d;fill-opacity:1" />
  </g>
</svg>
