<?xml version="1.0" encoding="UTF-8" standalone="no"?>
<svg
   version="1.1"
   id="Layer_1"
   x="0px"
   y="0px"
   viewBox="0 0 117.34 122.88"
   style="enable-background:new 0 0 117.34 122.88"
   xml:space="preserve"
   sodipodi:docname="credit-card-icon.svg"
   inkscape:version="1.3.1 (9b9bdc1480, 2023-11-25, custom)"
   xmlns:inkscape="http://www.inkscape.org/namespaces/inkscape"
   xmlns:sodipodi="http://sodipodi.sourceforge.net/DTD/sodipodi-0.dtd"
   xmlns="http://www.w3.org/2000/svg"
   xmlns:svg="http://www.w3.org/2000/svg"><defs
     id="defs1" /><sodipodi:namedview
     id="namedview1"
     pagecolor="#ffffff"
     bordercolor="#000000"
     borderopacity="0.25"
     inkscape:showpageshadow="2"
     inkscape:pageopacity="0.0"
     inkscape:pagecheckerboard="0"
     inkscape:deskcolor="#d1d1d1"
     showguides="true"
     inkscape:zoom="2.8246421"
     inkscape:cx="123.20145"
     inkscape:cy="61.600724"
     inkscape:window-width="1366"
     inkscape:window-height="701"
     inkscape:window-x="0"
     inkscape:window-y="0"
     inkscape:window-maximized="1"
     inkscape:current-layer="Layer_1" /><style
     type="text/css"
     id="style1">.st0{fill-rule:evenodd;clip-rule:evenodd;}</style><g
     id="g1"
     style="display:inline;fill:#00c7e1;fill-opacity:1"><path
       class="st0"
       d="m 113.6091,40.929772 c 0,0 2.12399,0.532051 2.76885,1.326772 C 117.24781,43.328549 117.36,44.63 117.36,46.28 v 70.59 c 0,1.65 -0.68,3.15 -1.76,4.23 v 0.01 c -1.09,1.09 -2.59,1.76 -4.25,1.76 H 6.02 c -1.66,0 -3.16,-0.67 -4.25,-1.76 V 121.1 C 0.68,120.02 0,118.52 0,116.88 v -70.6 c 0,-0.597392 -0.09100972,-2.735801 2.588666,-4.159286 1.0209629,-0.542351 2.667312,-0.980922 4.6509489,-1.190942 25.9300321,0 106.3694851,0 106.3694851,0 z M 5.89,45.62 c -0.23,0.25 -0.42,0.53 -0.56,0.84 v 8.69 h 106.68 v -8.87 c 0,-0.19 -0.07,-0.36 -0.19,-0.47 h -0.01 c -0.12,-0.12 -0.29,-0.2 -0.48,-0.2 H 6.01 c -0.04,0 -0.08,0 -0.12,0.01 z m 10.09,39.09 h 19.05 v 7.13 H 15.98 Z m 0,16.88 h 53.25 v 6.43 H 15.98 Z M 86.21,84.71 h 19.05 v 7.13 H 86.21 Z m -23.41,0 h 19.05 v 7.13 H 62.8 Z m -23.41,0 h 19.05 v 7.13 H 39.39 Z m 72.62,-9.57 H 5.33 v 41.73 c 0,0.19 0.07,0.36 0.2,0.48 h 0.01 c 0.13,0.13 0.3,0.2 0.47,0.2 h 105.33 c 0.18,0 0.35,-0.08 0.48,-0.2 v 0 c 0.13,-0.13 0.2,-0.3 0.2,-0.48 v 0 -41.73 z"
       id="path1"
       sodipodi:nodetypes="sassccssccssscsccccsccssccccccccccccccccccccccccccccsccsssssccc"
       style="fill:#00c7e1;fill-opacity:1" /></g><g
     inkscape:groupmode="layer"
     id="layer4"
     inkscape:label="Layer 1"><path
       d="M 85.140003,14.83 43.260001,40.280001 H 55.170002 L 86.090003,21.49 l 4.54,-2.76 L 103.72,40.280001 H 6.0100002 8.5100003 L 73.530002,0.77000002 v 0 C 74.360002,0.27000001 75.300002,0 76.270002,0 c 0.42,0 0.84,0.05 1.25,0.15 1.36,0.33000001 2.54,1.19 3.260001,2.3900001 v 0 l 6.63,10.9099999 z"
       style="clip-rule:evenodd;display:inline;fill-rule:evenodd;fill:#f4265d;fill-opacity:1"
       id="path1-6"
       sodipodi:nodetypes="cccccccccsscsccc" /></g></svg>
